# xmcd CD database file
#
# Track frame offsets:
#	150
#	16508
#	34323
#	55093
#	69999
#	89374
#	106843
#	124237
#	137778
#	155337
#	172712
#	192444
#	207213
#	224010
#	241923
#	260060
#	280152
#	296238
#	312180
#	327821
#
# Disc length: 4558 seconds
#
# Revision: 0
# Processed by: cddbd v1.5.2PL0 Copyright (c) Steve Scherf et al.
# Submitted via: CDex 1.51
#
DISCID=2311cc14
DTITLE=The very best of new country - Country Hits 2009 vol.2
DYEAR=2009
DGENRE=Country
TTITLE0=Toby Keith - Lost you anyway
TTITLE1=Rascal Flatts - Here
TTITLE2=Sugarland - Already gone
TTITLE3=Aaron Pritchett - Hellbent for Buffalo
TTITLE4=Tara Oram - Fly girl
TTITLE5=Doc Walker - That's all
TTITLE6=George Canyon - All or nothing
TTITLE7=Johnny Reid - Out of the blue
TTITLE8=Bryce Pallister - Ready to go
TTITLE9=Jaydee Bixby - Boys in the band
TTITLE10=Beverly Mahood - Rewrite history
TTITLE11=The Higgins - Real thing
TTITLE12=Jack Ingram - That's a man
TTITLE13=The Rankin Family - Never alone
TTITLE14=Jo Hikk - My kind of radio
TTITLE15=Reba McEntire and Vince Gill - These broken hearts
TTITLE16=The Wilkinsons - You heal me
TTITLE17=Shane Yellowbird - Life is calling my name
TTITLE18=Jason Blaine - Give it to me
TTITLE19=Alex J Robinson - Don't waste my time
EXTD=YEAR: 2009
EXTT0=
EXTT1=
EXTT2=
EXTT3=
EXTT4=
EXTT5=
EXTT6=
EXTT7=
EXTT8=
EXTT9=
EXTT10=
EXTT11=
EXTT12=
EXTT13=
EXTT14=
EXTT15=
EXTT16=
EXTT17=
EXTT18=
EXTT19=
PLAYORDER=
